<svg id="svg1" version="1.1" viewBox="0 0 100 35.67" xmlns="http://www.w3.org/2000/svg">
  <path id="path1" d="m6.661 1.924c-2.072 1.284-3.7 3.047-4.884 5.292-1.184 2.22-1.777 4.687-1.777 7.4 0 1.875 0.2831 3.528 0.8513 4.958 0.5925 1.406 1.431 2.492 2.516 3.256 1.085 0.7653 2.343 1.148 3.774 1.148 1.135 0 2.171-0.2456 3.108-0.7396 0.9623-0.4933 1.776-1.209 2.442-2.147h0.1478l-1.85 8.178c-0.3212 1.505-0.7903 2.64-1.406 3.404-0.6168 0.7653-1.356 1.146-2.22 1.146-0.6911 0-1.27-0.2456-1.739-0.7396-0.4447-0.4933-0.6668-1.134-0.6668-1.924 0-0.7896 0.2345-1.431 0.7036-1.924s1.073-0.7396 1.813-0.7396c0.4191 0 0.8146 0.08668 1.184 0.2588 0.3941 0.1728 0.7022 0.408 0.9242 0.7035 0.2713-0.3448 0.408-0.8146 0.408-1.406 0-0.7646-0.297-1.381-0.8888-1.85-0.5676-0.4683-1.319-0.7035-2.256-0.7035-0.9124 0-1.752 0.2352-2.516 0.7035-0.7653 0.4448-1.37 1.06-1.813 1.85-0.4448 0.7903-0.6668 1.654-0.6668 2.591 0 1.505 0.5432 2.714 1.629 3.627 1.11 0.938 2.565 1.406 4.366 1.406 2.294 0 4.156-0.8638 5.587-2.591 1.456-1.726 2.578-4.428 3.368-8.104l2.702-12.43-4.368-0.03679c-0.6168 2.689-1.442 4.737-2.478 6.143-1.012 1.406-2.183 2.108-3.515 2.108-1.111 0-1.961-0.4808-2.553-1.443-0.5925-0.9866-0.8888-2.405-0.8888-4.255 0-2.244 0.4066-4.392 1.221-6.439 0.8138-2.047 1.888-3.7 3.22-4.958 1.332-1.283 2.713-1.924 4.144-1.924 0.7896 0 1.394 0.2116 1.813 0.63 0.444 0.3948 0.6668 0.9623 0.6668 1.702 0 0.6668-0.1602 1.331-0.4808 1.998-0.2963 0.6418-0.6661 1.112-1.11 1.406 0.2713 0.3705 0.6036 0.6536 0.9984 0.8513 0.4191 0.1977 0.8631 0.2956 1.332 0.2956 0.8388 0 1.517-0.3192 2.036-0.961 0.5176-0.6411 0.7764-1.493 0.7764-2.555 0-1.578-0.6168-2.824-1.85-3.738-1.211-0.9131-2.865-1.369-5.159-1.369s-4.576 0.6416-6.648 1.924zm20.21-0.2949c-0.8146 0-1.505 0.2963-2.072 0.8874-0.5676 0.5676-0.8513 1.258-0.8513 2.072 0 0.8146 0.2831 1.505 0.8513 2.072 0.5668 0.5676 1.258 0.8513 2.072 0.8513s1.504-0.2831 2.072-0.8513c0.5925-0.5668 0.8888-1.258 0.8888-2.072 0-0.8139-0.297-1.504-0.8888-2.072-0.5676-0.5911-1.259-0.8874-2.072-0.8874zm13.08 0.4066-5.476 0.7396-3.96 18.54c-0.03263 0.1624-0.04586 0.29-0.07282 0.442-0.2748 0.7944-0.6723 1.466-1.206 2-0.6168 0.5925-1.284 0.8874-1.999 0.8874-0.5426 0-0.938-0.09789-1.184-0.2956-0.222-0.2213-0.3324-0.5793-0.3324-1.073 0-0.4191 0.04863-0.8138 0.1478-1.184l2.664-12.58h-5.328l-2.516 11.88c-0.1977 0.9873-0.297 1.789-0.297 2.406 0 1.481 0.358 2.591 1.073 3.331 0.7396 0.7403 1.702 1.11 2.886 1.11 1.406 0 2.824-0.469 4.255-1.406 0.6272-0.4212 1.202-1.016 1.73-1.766 0.1568 0.8555 0.4718 1.547 0.9554 2.063 0.7396 0.7403 1.702 1.11 2.886 1.11 1.06 0 1.974-0.3323 2.738-0.9984 0.7896-0.6903 1.233-1.653 1.332-2.886-0.3455 0.1485-0.7403 0.222-1.184 0.222-1.012 0-1.517-0.494-1.517-1.481 0-0.3448 0.0485-0.7015 0.1478-1.072zm54.42 0.0742-5.476 0.7396-3.96 18.54c-1.135 1.258-2.212 2.197-3.174 2.814-0.938 0.6175-2.072 0.9242-3.404 0.9242-0.9381 0-1.617-0.2095-2.036-0.6286-0.4191-0.444-0.6286-1.269-0.6286-2.478 0-0.2463 0.02493-0.7403 0.0742-1.481 1.48-0.09852 2.873-0.4933 4.18-1.184 1.307-0.7146 2.356-1.652 3.145-2.812 0.7896-1.159 1.184-2.429 1.184-3.81 0-2.368-1.358-3.553-4.071-3.553-2.32 0-4.231 0.7535-5.735 2.258-1.505 1.481-2.59 3.245-3.256 5.292-0.6668 2.048-0.9984 3.922-0.9984 5.623 0 2.023 0.5051 3.516 1.517 4.477 1.011 0.9381 2.429 1.406 4.255 1.406 3.343 0 6.24-1.563 8.69-4.681 0.01133 1.478 0.4517 2.632 1.329 3.459 0.8874 0.8146 2.171 1.221 3.849 1.221 2.417 0 4.38-0.6904 5.884-2.072 1.529-1.381 2.615-3.034 3.256-4.958 0.6661-1.949 0.9984-3.774 0.9984-5.478 0-4.218-1.456-6.327-4.366-6.327-0.4448 0-0.8881 0.0742-1.332 0.222-0.4448 0.1242-1.012 0.3955-1.702 0.8145zm-28.27 7.215c-0.3705 0.3705-0.5544 0.852-0.5544 1.443 0 0.469 0.1096 0.9013 0.3324 1.295 0.2463 0.3948 0.5807 0.5925 0.9998 0.5925 0.1971 0 0.4316-0.02494 0.7036-0.07421 0.2713-0.07357 0.4302-0.1714 0.4794-0.2956 0 1.431-0.2963 3.133-0.8874 5.106-0.5925 1.974-1.381 3.676-2.367 5.106-0.9623 1.431-2.012 2.147-3.146 2.147-0.8388 0-1.258-0.4066-1.258-1.221 0-0.2713 0.06173-0.7146 0.186-1.332l2.664-12.58h-5.33l-2.515 11.88c-0.2963 1.012-0.6911 1.814-1.184 2.406-0.4933 0.5676-1.086 0.8513-1.777 0.8513-0.7403 0-1.11-0.5419-1.11-1.628 0-0.3205 0.03754-0.6293 0.111-0.9256l2.664-12.58h-5.328l-2.516 11.88c-0.1977 0.9873-0.297 1.789-0.297 2.406 0 1.481 0.358 2.591 1.073 3.331 0.7396 0.7403 1.702 1.11 2.886 1.11 2.122 0 3.874-1.036 5.255-3.108 0.2213 1.037 0.7146 1.814 1.48 2.332 0.7646 0.5183 1.751 0.7764 2.961 0.7764 2.343 0 4.303-0.8874 5.883-2.664 1.578-1.776 2.75-3.922 3.515-6.438 0.7646-2.541 1.148-4.923 1.148-7.143 0-0.9374-0.186-1.702-0.5558-2.294-0.3691-0.6168-0.9602-0.9242-1.75-0.9248s-1.37 0.184-1.764 0.5538zm15.33 3.331c0 1.012-0.2588 1.974-0.7764 2.886-0.494 0.9131-1.161 1.666-1.999 2.258-0.8145 0.5925-1.677 0.9131-2.589 0.9623 0.3698-1.973 0.9741-3.738 1.813-5.292 0.8631-1.554 1.74-2.333 2.492-2.333s1.06 0.5065 1.06 1.518zm14.31 0.4059c0.3448 0.691 0.5176 1.53 0.5176 2.516 0 1.308-0.1977 2.677-0.5925 4.108-0.3948 1.406-0.9249 2.591-1.591 3.553-0.6668 0.9381-1.382 1.405-2.147 1.405-1.308 0-1.961-0.5669-1.961-1.702 0-0.2713 0.03679-0.5551 0.111-0.8513l2.036-9.399c0.172-0.2213 0.4794-0.3823 0.9242-0.4808 0.4683-0.1228 0.8888-0.1839 1.382-0.1839s0.9744 0.3448 1.32 1.035z" style="fill:#ffcf02"/>
</svg>
