<svg id="svg1" version="1.1" viewBox="0 0 98 96" xmlns="http://www.w3.org/2000/svg">
  <path id="path1" d="m48.85 5.82c-23.74 0-42.93 19.33-42.93 43.25 0 19.12 12.3 35.3 29.35 41.03 2.133 0.4306 2.914-0.9306 2.914-2.076 0-1.003-0.0703-4.439-0.0703-8.02-11.94 2.578-14.43-5.156-14.43-5.156-1.919-5.012-4.763-6.301-4.763-6.301-3.909-2.649 0.2847-2.649 0.2847-2.649 4.336 0.2865 6.611 4.439 6.611 4.439 3.837 6.587 10.02 4.726 12.51 3.58 0.355-2.793 1.493-4.726 2.701-5.8-9.525-1.003-19.55-4.726-19.55-21.34 0-4.726 1.705-8.592 4.406-11.6-0.4262-1.074-1.919-5.514 0.4271-11.46 0 0 3.625-1.146 11.8 4.439a41.27 41.27 0 0 1 10.73-1.432c3.625 0 7.32 0.5018 10.73 1.432 8.174-5.585 11.8-4.439 11.8-4.439 2.346 5.943 0.8524 10.38 0.4262 11.46 2.772 3.007 4.407 6.874 4.407 11.6 0 16.61-10.02 20.26-19.62 21.34 1.564 1.36 2.914 3.938 2.914 8.019 0 5.8-0.0703 10.45-0.0703 11.89 0 1.146 0.7821 2.507 2.914 2.077 17.06-5.729 29.35-21.91 29.35-41.03 0.0703-23.92-19.19-43.25-42.86-43.25z" clip-rule="evenodd" fill="#24292f" fill-rule="evenodd" style="fill:#000000"/>
</svg>
