<svg id="svg2" version="1.1" viewBox="0 0 100 100" xmlns="http://www.w3.org/2000/svg">
  <title id="title3787">tag</title>
  <g id="layer1" transform="translate(-165 -111.2)">
    <path id="rect1" d="m179 134.2c-4.986 0-9 4.014-9 9v36c0 4.986 4.014 9 9 9h53.25c0.257 0 0.5097-0.016 0.7611-0.0369 2.55 0.219 5.173-0.6471 7.133-2.607l17.21-17.21c3.526-3.526 3.526-9.203 0-12.73l-18.5-18.71c-1.132-1.342-3.7-2.712-6.606-2.712zm64.58 21.7a6.004 6.004 0 0 1 6.005 6.003 6.004 6.004 0 0 1-6.005 6.005 6.004 6.004 0 0 1-6.003-6.005 6.004 6.004 0 0 1 6.003-6.003z" style="fill:#000000;paint-order:markers fill stroke;stroke-miterlimit:12.3;stroke-width:0"/>
  </g>
</svg>
